<svg xmlns="http://www.w3.org/2000/svg" viewBox="0 0 256 256" role="img" aria-labelledby="title desc">
  <title>ConfigurationHelper package icon</title>
  <desc>An orange gear with connected evenly spaced teeth and a white lock badge with a transparent keyhole on a blue background.</desc>
  <rect width="256" height="256" rx="36" fill="#00205c" />

  <g transform="translate(128 128)">
    <g fill="#c25700">
      <path d="M-18-92h36v24h-36z" />
      <path d="M-18-92h36v24h-36z" transform="rotate(45)" />
      <path d="M-18-92h36v24h-36z" transform="rotate(90)" />
      <path d="M-18-92h36v24h-36z" transform="rotate(135)" />
      <path d="M-18-92h36v24h-36z" transform="rotate(180)" />
      <path d="M-18-92h36v24h-36z" transform="rotate(225)" />
      <path d="M-18-92h36v24h-36z" transform="rotate(270)" />
      <path d="M-18-92h36v24h-36z" transform="rotate(315)" />
      <circle r="72" />
      <circle r="38" fill="#00205c" />
    </g>

    <g transform="translate(36 29)">
      <path fill="#ffffff" fill-rule="evenodd" d="M14 27v-9c0-7.7 6.3-14 14-14s14 6.3 14 14v9h6c4.4 0 8 3.6 8 8v20c0 4.4-3.6 8-8 8H8c-4.4 0-8-3.6-8-8V35c0-4.4 3.6-8 8-8h6zm10 0h8v-9c0-2.2-1.8-4-4-4s-4 1.8-4 4v9zm4 12a5 5 0 0 1 3 9v8a3 3 0 0 1-6 0v-8a5 5 0 0 1 3-9z" />
    </g>
  </g>
</svg>
